{
    "accessors": {
        "accessor_0": {
            "bufferView": "bufferView_1",
            "byteOffset": 0,
            "byteStride": 12,
            "componentType": 5126,
            "count": 14,
            "max": [
                0.148131,
                0.179426,
                0.476941
            ],
            "min": [
                0.141131,
                0.172652,
                0.475821
            ],
            "type": "VEC3"
        },
        "accessor_1": {
            "bufferView": "bufferView_1",
            "byteOffset": 168,
            "byteStride": 12,
            "componentType": 5126,
            "count": 14,
            "max": [
                1,
                1,
                1
            ],
            "min": [
                -1,
                -1,
                -1
            ],
            "type": "VEC3"
        },
        "accessor_2": {
            "bufferView": "bufferView_0",
            "byteOffset": 0,
            "byteStride": 2,
            "componentType": 5123,
            "count": 36,
            "max": [
                13
            ],
            "min": [
                0
            ],
            "type": "SCALAR"
        },
        "accessor_3": {
            "bufferView": "bufferView_3",
            "byteOffset": 0,
            "byteStride": 12,
            "componentType": 5126,
            "count": 3325,
            "max": [
                0.299281,
                0.182215,
                0.477726
            ],
            "min": [
                -0.00921868,
                -0.0280302,
                0.227329
            ],
            "type": "VEC3"
        },
        "accessor_4": {
            "bufferView": "bufferView_3",
            "byteOffset": 39900,
            "byteStride": 12,
            "componentType": 5126,
            "count": 3325,
            "max": [
                1,
                1,
                1
            ],
            "min": [
                -1,
                -1,
                -1
            ],
            "type": "VEC3"
        },
        "accessor_5": {
            "bufferView": "bufferView_2",
            "byteOffset": 0,
            "byteStride": 2,
            "componentType": 5123,
            "count": 8826,
            "max": [
                3324
            ],
            "min": [
                0
            ],
            "type": "SCALAR"
        },
        "accessor_6": {
            "bufferView": "bufferView_5",
            "byteOffset": 0,
            "byteStride": 12,
            "componentType": 5126,
            "count": 4124,
            "max": [
                0.267262,
                -0.0202876,
                0.402311
            ],
            "min": [
                0.0242921,
                -0.0237541,
                0.312203
            ],
            "type": "VEC3"
        },
        "accessor_7": {
            "bufferView": "bufferView_5",
            "byteOffset": 49488,
            "byteStride": 12,
            "componentType": 5126,
            "count": 4124,
            "max": [
                1,
                1,
                1
            ],
            "min": [
                -1,
                -1,
                -1
            ],
            "type": "VEC3"
        },
        "accessor_8": {
            "bufferView": "bufferView_4",
            "byteOffset": 0,
            "byteStride": 2,
            "componentType": 5123,
            "count": 8160,
            "max": [
                4123
            ],
            "min": [
                0
            ],
            "type": "SCALAR"
        },
        "accessor_9": {
            "bufferView": "bufferView_7",
            "byteOffset": 0,
            "byteStride": 12,
            "componentType": 5126,
            "count": 348,
            "max": [
                0.299181,
                -0.0213531,
                0.426867
            ],
            "min": [
                -0.00401866,
                -0.0262479,
                0.372895
            ],
            "type": "VEC3"
        },
        "accessor_10": {
            "bufferView": "bufferView_7",
            "byteOffset": 4176,
            "byteStride": 12,
            "componentType": 5126,
            "count": 348,
            "max": [
                1,
                1,
                1
            ],
            "min": [
                -1,
                -1,
                -1
            ],
            "type": "VEC3"
        },
        "accessor_11": {
            "bufferView": "bufferView_6",
            "byteOffset": 0,
            "byteStride": 2,
            "componentType": 5123,
            "count": 924,
            "max": [
                347
            ],
            "min": [
                0
            ],
            "type": "SCALAR"
        }
    },
    "animations": {
    },
    "asset": {
        "generator": "pv2gltf",
        "premultipliedAlpha": true,
        "profile": {
            "api": "WebGL",
            "version": "1.0.2"
        },
        "version": "1.0.1"
    },
    "bufferViews": {
        "bufferView_1": {
            "buffer": "final@0",
            "byteLength": 336,
            "byteOffset": 0,
            "target": 34962
        },
        "bufferView_0": {
            "buffer": "final@0",
            "byteLength": 72,
            "byteOffset": 336,
            "target": 34963
        },
        "bufferView_3": {
            "buffer": "final@0",
            "byteLength": 79800,
            "byteOffset": 408,
            "target": 34962
        },
        "bufferView_2": {
            "buffer": "final@0",
            "byteLength": 17652,
            "byteOffset": 80208,
            "target": 34963
        },
        "bufferView_5": {
            "buffer": "final@0",
            "byteLength": 98976,
            "byteOffset": 97860,
            "target": 34962
        },
        "bufferView_4": {
            "buffer": "final@0",
            "byteLength": 16320,
            "byteOffset": 196836,
            "target": 34963
        },
        "bufferView_7": {
            "buffer": "final@0",
            "byteLength": 8352,
            "byteOffset": 213156,
            "target": 34962
        },
        "bufferView_6": {
            "buffer": "final@0",
            "byteLength": 1848,
            "byteOffset": 221508,
            "target": 34963
        }
    },
    "buffers": {
        "final@0": {
            "byteLength": 223356,
            "type": "arraybuffer",
            "uri": "final-0.bin"
        }
    },
    "extensionsUsed": [
    ],
    "images": {
    },
    "materials": {
        "mat@0-lib": {
            "name": "mat@0",
            "doubleSided": true,
            "technique": "technique@0",
            "transparent": false,
            "values": {
                "ambient": [
                    0.25098,
                    0.25098,
                    0.25098,
                    1
                ],
                "diffuse": [
                    0.213333,
                    0.213333,
                    0.213333,
                    1
                ],
                "emission": [
                    0,
                    0,
                    0,
                    1
                ],
                "shininess": 32,
                "specular": [
                    0.8,
                    0.8,
                    0.8,
                    1
                ]
            }
        },
        "mat@1-lib": {
            "name": "mat@1",
            "doubleSided": true,
            "technique": "technique@0",
            "transparent": false,
            "values": {
                "ambient": [
                    1,
                    1,
                    1,
                    1
                ],
                "diffuse": [
                    0.85,
                    0.85,
                    0.85,
                    1
                ],
                "emission": [
                    0,
                    0,
                    0,
                    1
                ],
                "shininess": 32,
                "specular": [
                    0.8,
                    0.8,
                    0.8,
                    1
                ]
            }
        },
        "mat@2-lib": {
            "name": "mat@2",
            "doubleSided": true,
            "technique": "technique@0",
            "transparent": false,
            "values": {
                "ambient": [
                    0,
                    0,
                    0,
                    1
                ],
                "diffuse": [
                    0,
                    0,
                    0,
                    1
                ],
                "emission": [
                    0,
                    0,
                    0,
                    1
                ],
                "shininess": 32,
                "specular": [
                    0.8,
                    0.8,
                    0.8,
                    1
                ]
            }
        },
        "mat@3-lib": {
            "name": "mat@3",
            "doubleSided": true,
            "technique": "technique@0",
            "transparent": false,
            "values": {
                "ambient": [
                    0.501961,
                    0.501961,
                    0.501961,
                    1
                ],
                "diffuse": [
                    0.426667,
                    0.426667,
                    0.426667,
                    1
                ],
                "emission": [
                    0,
                    0,
                    0,
                    1
                ],
                "shininess": 32,
                "specular": [
                    0.8,
                    0.8,
                    0.8,
                    1
                ]
            }
        }
    },
    "meshes": {
        "Merge0~1": {
            "name": "Merge0~1",
            "primitives": [
                {
                    "attributes": {
                        "NORMAL": "accessor_1",
                        "POSITION": "accessor_0"
                    },
                    "indices": "accessor_2",
                    "material": "mat@0-lib",
                    "mode": 4
                }
            ]
        },
        "Merge1~2": {
            "name": "Merge1~2",
            "primitives": [
                {
                    "attributes": {
                        "NORMAL": "accessor_4",
                        "POSITION": "accessor_3"
                    },
                    "indices": "accessor_5",
                    "material": "mat@1-lib",
                    "mode": 4
                }
            ]
        },
        "Merge2~3": {
            "name": "Merge2~3",
            "primitives": [
                {
                    "attributes": {
                        "NORMAL": "accessor_7",
                        "POSITION": "accessor_6"
                    },
                    "indices": "accessor_8",
                    "material": "mat@2-lib",
                    "mode": 4
                }
            ]
        },
        "Merge3~4": {
            "name": "Merge3~4",
            "primitives": [
                {
                    "attributes": {
                        "NORMAL": "accessor_10",
                        "POSITION": "accessor_9"
                    },
                    "indices": "accessor_11",
                    "material": "mat@3-lib",
                    "mode": 4
                }
            ]
        }
    },
    "nodes": {
        "/": {
            "children": [
                "Merge0",
                "Merge1",
                "Merge2",
                "Merge3"
            ],
            "name": "final"
        },
        "Merge0": {
            "children": [
                "Merge0~1@0"
            ],
            "name": "Merge0"
        },
        "Merge0~1@0": {
            "children": [],
            "meshes": [
                "Merge0~1"
            ]
        },
        "Merge1": {
            "children": [
                "Merge1~2@0"
            ],
            "name": "Merge1"
        },
        "Merge1~2@0": {
            "children": [],
            "meshes": [
                "Merge1~2"
            ]
        },
        "Merge2": {
            "children": [
                "Merge2~3@0"
            ],
            "name": "Merge2"
        },
        "Merge2~3@0": {
            "children": [],
            "meshes": [
                "Merge2~3"
            ]
        },
        "Merge3": {
            "children": [
                "Merge3~4@0"
            ],
            "name": "Merge3"
        },
        "Merge3~4@0": {
            "children": [],
            "meshes": [
                "Merge3~4"
            ]
        }
    },
    "programs": {
        "program@0": {
            "attributes": [
                "a_normal",
                "a_position"
            ],
            "fragmentShader": "final0FS",
            "vertexShader": "final0VS"
        }
    },
    "samplers": {
    },
    "shaders": {
        "final0FS": {
            "type": 35632,
            "uri": "final0FS.glsl"
        },
        "final0VS": {
            "type": 35633,
            "uri": "final0VS.glsl"
        }
    },
    "scene": "defaultScene",
    "scenes": {
        "defaultScene": {
            "nodes": [
                "/"
            ]
        }
    },
    "skins": {
    },
    "techniques": {
        "technique@0": {
            "attributes": {
                "a_normal": "normal",
                "a_position": "position"
            },
            "parameters": {
                "ambient": {
                    "type": 35666
                },
                "diffuse": {
                    "type": 35666
                },
                "emission": {
                    "type": 35666
                },
                "modelViewMatrix": {
                    "semantic": "MODELVIEW",
                    "type": 35676
                },
                "normal": {
                    "semantic": "NORMAL",
                    "type": 35665
                },
                "normalMatrix": {
                    "semantic": "MODELVIEWINVERSETRANSPOSE",
                    "type": 35675
                },
                "position": {
                    "semantic": "POSITION",
                    "type": 35665
                },
                "projectionMatrix": {
                    "semantic": "PROJECTION",
                    "type": 35676
                },
                "shininess": {
                    "type": 5126
                },
                "specular": {
                    "type": 35666
                }
            },
            "program": "program@0",
            "states": {
                "enable": [
                    2929
                ],
                "disable": [
                    2884
                ],
                "functions": {
                }
            },
            "uniforms": {
                "u_ambient": "ambient",
                "u_diffuse": "diffuse",
                "u_emission": "emission",
                "u_modelViewMatrix": "modelViewMatrix",
                "u_normalMatrix": "normalMatrix",
                "u_projectionMatrix": "projectionMatrix",
                "u_shininess": "shininess",
                "u_specular": "specular"
            }
        }
    },
    "textures": {
    }
}